<svg width="379" height="21" viewBox="0 0 379 21" fill="none" xmlns="http://www.w3.org/2000/svg">
<path d="M378.317 14.5124C377.901 14.2443 377.589 13.851 377.16 13.5888C376.066 12.9095 374.93 12.266 373.808 11.6164C372.111 11.7714 370.588 10.9371 368.96 10.9133C366.19 10.8716 363.6 9.76324 360.795 10.0552C360.428 10.0969 360.027 9.85262 359.632 9.75728C357.132 9.1614 354.639 8.5655 351.979 8.67871C350.594 8.7383 349.209 8.8694 347.893 8.30927C345.615 7.34393 343.163 7.18902 340.656 7.24265C338.579 7.29032 336.501 7.24265 334.423 7.24265C333.603 7.22855 332.788 7.12238 331.999 6.92683C329.506 6.33094 327.027 5.58608 324.381 5.86019C323.421 6.02978 322.426 5.99294 321.486 5.75293C319.076 4.84123 316.583 5.23451 314.125 5.11533C313.301 5.07958 312.359 5.19875 311.687 4.88889C310.489 4.32876 309.27 4.44794 308.044 4.4241C306.098 4.39431 304.145 4.42411 302.199 4.38835C301.507 4.38835 300.662 4.54329 300.163 4.26322C299.006 3.61967 297.774 3.76864 296.548 3.66734C295.866 3.63052 295.195 3.49973 294.56 3.28C294.19 3.13419 293.787 3.05874 293.38 3.05874C292.972 3.05874 292.569 3.13419 292.199 3.28C290.204 3.91163 290.184 3.87589 287.517 3.15487C286.983 3.04036 286.433 2.98825 285.883 2.99993C282.129 2.99993 278.376 2.99994 274.622 2.95823C273.93 2.95823 273.092 3.1072 272.593 2.82714C271.298 2.10612 269.92 2.2968 268.555 2.28488C265.917 2.28488 263.271 2.28487 260.633 2.24316C259.807 2.24477 258.982 2.17087 258.174 2.02269C255.252 1.36724 252.183 1.36724 249.261 2.02269C248.028 2.28488 246.74 2.45173 245.612 1.96906C244.483 1.48639 243.465 1.59365 242.377 1.52215C240.604 1.40893 238.79 1.74858 237.093 0.926261C236.832 0.866626 236.56 0.853835 236.293 0.888691C236.026 0.923546 235.771 1.0053 235.542 1.12886C234.922 1.4022 234.242 1.55751 233.546 1.58425C232.851 1.61098 232.157 1.50851 231.511 1.2838C230.673 1.03948 230.015 0.789211 229.233 1.2838C229.121 1.35255 228.992 1.39756 228.856 1.41516C228.72 1.43277 228.581 1.42246 228.45 1.38509C226.511 0.383999 224.385 0.860712 222.349 0.830917C217.626 0.76537 212.896 0.830919 208.166 0.795166C206.088 0.795166 204.01 1.14078 202.064 0.169484C201.746 0.00859542 201.247 0.109892 200.832 0.109892C198.754 0.109892 196.676 0.080098 194.599 0.109892C194.056 0.106393 193.518 0.19973 193.02 0.384003C192.528 0.580646 192.189 1.08714 191.697 1.20036C191.496 1.24803 191.094 0.604477 190.762 0.324411C190.674 0.236974 190.55 0.181623 190.416 0.169484C188.338 0.223114 186.302 -0.241681 184.266 0.509134C182.964 0.931172 181.525 0.916287 180.235 0.467427C178.255 -0.128458 176.212 -0.378729 174.453 1.11098C174.154 1.36873 173.754 1.52271 173.332 1.54359C172.909 1.56447 172.492 1.45079 172.16 1.2242C170.346 0.187363 168.331 0.0324312 166.218 0.0860608C163.753 0.163526 161.225 -0.140384 159.051 1.32549C158.554 1.52726 157.985 1.55504 157.465 1.40296C153.593 0.562764 153.6 0.556805 149.043 1.40296C148.653 1.43641 148.259 1.38944 147.894 1.26592C145.586 0.783563 143.205 0.614668 140.837 0.76537C139.313 0.860711 137.776 0.765369 136.252 0.848793C134.174 0.96797 132.097 0.503177 130.088 1.21824C128.08 1.9333 125.933 1.33742 123.911 1.5579C123.385 1.61749 122.907 1.9333 122.38 2.0346C121.854 2.1359 121.141 2.33851 120.788 2.13591C119.243 1.27187 117.574 1.54002 115.94 1.54002C114.555 1.54002 113.17 1.54002 111.785 1.54002H107.629C106.383 1.54002 105.129 1.54003 103.876 1.58174C102.491 1.62345 101.105 1.30166 99.8519 2.09419C98.6123 1.37317 97.1996 1.55195 95.8353 1.54599C93.3352 1.54599 90.8282 1.54597 88.3281 1.58768C86.5621 1.6294 84.706 1.1527 83.0647 2.15378C82.9427 2.20812 82.8074 2.23647 82.6701 2.23647C82.5327 2.23647 82.3973 2.20812 82.2753 2.15378C81.1049 1.42084 80.0799 1.64728 78.8125 2.11207C77.7715 2.43919 76.6265 2.42221 75.5992 2.0644C74.4363 1.69153 73.1947 1.53513 71.9564 1.60556C68.4937 1.60556 65.031 1.60556 61.5267 1.60556C60.8342 1.60556 60.0377 1.43872 59.4491 1.66515C56.9144 2.6722 54.2689 2.1359 51.6718 2.26104C50.988 2.33698 50.2928 2.2737 49.6426 2.07632C48.8991 1.76484 48.0841 1.6005 47.2572 1.59534C46.4303 1.59019 45.6127 1.74435 44.8641 2.04653C44.2104 2.23154 43.5215 2.3064 42.835 2.267C38.5204 2.267 34.2127 2.35639 29.9051 2.267C25.5975 2.17762 21.0961 2.64241 16.7053 1.67112C14.6668 1.22072 12.5068 1.43288 10.6387 2.267C8.08317 2.14187 5.86701 3.22638 3.51929 3.81034C2.72784 4.01518 2.04438 4.45148 1.58707 5.04383C0.527478 6.56334 -0.255048 8.20202 0.0773724 10.0552C0.0914882 10.2916 0.179975 10.5202 0.333525 10.7166C1.76709 12.1587 3.1591 13.6961 5.35446 14.3337C5.85309 14.4826 6.58722 14.6614 6.94041 14.4648C8.48478 13.5948 10.1607 13.9404 11.7882 13.8689C13.4157 13.7974 15.2509 14.1251 16.7537 13.6722C18.3244 13.2603 19.9596 13.0594 21.6015 13.0763C22.0137 13.1242 22.4332 13.0896 22.8273 12.9751C24.6348 12.0157 26.657 12.6652 28.5131 12.3315C30.366 11.8964 32.2783 11.676 34.199 11.676C35.7226 11.7475 37.253 11.676 38.7835 11.6462C39.3306 11.6462 40.0094 11.7356 40.4041 11.5032C41.6923 10.7584 43.0911 10.9967 44.4485 10.9908C52.3781 10.955 60.3008 10.955 68.2235 10.9252C69.6086 10.9252 70.9937 11.1457 72.2473 10.371C74.1794 10.371 76.2225 10.0314 78.0162 10.4664C80.2712 11.0246 82.6538 11.082 84.9416 10.6332C85.4448 10.5307 85.9727 10.5661 86.4513 10.7345C86.9551 10.9117 87.5196 10.9117 88.0234 10.7345C89.0553 10.1386 90.1425 10.2459 91.2437 10.234C92.3537 10.2808 93.4661 10.2709 94.5748 10.2042C95.5236 10.091 96.1815 10.961 97.345 10.4425C98.2315 10.0373 99.5126 10.2042 100.614 10.2459C101.535 10.2757 102.581 10.806 103.349 10.5677C105.281 9.97179 107.207 10.2876 109.118 10.2638C115.926 10.1803 122.741 10.2042 129.555 10.1684C130.781 10.1684 132.048 10.3532 133.184 9.67385C133.433 9.53084 133.994 9.67385 134.334 9.78707C134.846 9.98371 135.324 10.2936 135.857 9.94795C136.716 9.39974 137.686 9.47721 138.627 9.48913C139.874 9.48913 141.128 9.52489 142.381 9.53084C143.766 9.53084 145.151 9.5209 146.536 9.50104C147.79 9.50104 149.189 9.75132 150.255 9.35803C151.716 8.80982 152.859 9.74536 154.182 9.507C155.11 9.34611 156.121 9.61427 156.994 9.08393C157.211 8.93199 157.482 8.84905 157.762 8.84905C158.042 8.84905 158.314 8.93199 158.531 9.08393C159.121 9.40207 159.822 9.53276 160.512 9.45338L164.667 9.39378C165.754 8.34503 167.403 10.1684 168.428 8.83962C169.39 8.83962 170.339 8.70851 171.267 9.14947C171.71 9.36399 172.576 9.56659 172.798 9.37591C173.982 8.37482 175.36 9.22097 176.634 8.97666C178.469 8.63104 180.464 8.42846 182.32 9.25078C182.504 9.30612 182.7 9.32729 182.895 9.31292C183.089 9.29854 183.278 9.24893 183.449 9.16734C183.722 8.98325 184.056 8.87929 184.402 8.87071C184.749 8.86213 185.089 8.94939 185.374 9.11968C185.595 9.25716 185.858 9.33556 186.13 9.3451C186.402 9.35464 186.672 9.29489 186.905 9.17331C187.376 8.96475 188.068 8.70853 188.449 8.86346C189.786 9.41167 190.998 9.17332 192.313 8.86346C192.985 8.73515 193.687 8.80439 194.308 9.06009C195.121 9.38796 196.006 9.5609 196.904 9.56707C197.802 9.57324 198.69 9.41249 199.509 9.09584C199.82 8.98665 200.157 8.94268 200.492 8.96755C200.826 8.99241 201.149 9.08539 201.434 9.23885C201.67 9.35279 201.931 9.42423 202.2 9.44881C202.469 9.4734 202.741 9.45063 202.999 9.38187C204.087 8.78599 204.952 8.90516 206.067 9.38187C206.524 9.51602 207.009 9.56102 207.488 9.5136C207.967 9.46619 208.428 9.32755 208.837 9.10775C209.139 8.97936 209.467 8.90521 209.803 8.88984C210.139 8.87447 210.475 8.91821 210.791 9.01837C211.805 9.40185 212.913 9.56357 214.018 9.48913C217.91 9.48913 221.802 9.48913 225.694 9.52488C226.671 9.52488 227.772 9.29844 228.589 9.62022C230.867 10.5081 233.215 10.1565 235.514 10.1804C239.967 10.234 244.413 10.1804 248.867 10.1804C249.698 10.1804 250.702 9.97776 251.332 10.2936C253.043 11.1517 254.836 10.8895 256.602 10.8895C259.663 10.9371 262.724 10.8895 265.778 10.8895C266.471 10.8895 267.288 10.7167 267.856 10.9669C270.1 11.9621 272.475 11.5151 274.781 11.5628C277.697 11.6403 280.62 11.5926 283.535 11.6105C284.228 11.6105 285.066 11.4436 285.613 11.7058C287.317 12.552 289.117 12.2362 290.89 12.3017C293.258 12.3613 295.62 12.3672 297.982 12.3911C300.315 13.4935 302.829 12.9512 305.316 13.0823C306.14 13.124 307.061 13.0346 307.747 13.3385C308.636 13.6691 309.605 13.8102 310.572 13.7497L316.41 13.8033C317.372 13.7916 318.327 13.9414 319.222 14.2443C320.606 14.7402 322.075 15.04 323.571 15.1322C326.722 15.293 329.859 15.1322 333.01 15.8174C335.088 16.2643 337.436 15.9366 339.659 15.9664C340.351 15.9664 341.189 15.8293 341.702 16.1094C342.997 16.8066 344.513 16.3239 345.705 16.7768C346.995 17.1917 348.365 17.3938 349.742 17.3727C350.155 17.3383 350.571 17.3915 350.954 17.5276C352.09 18.189 353.357 17.9388 354.576 18.0699C355.92 18.2188 357.229 18.6181 358.572 18.7432C359.805 18.7817 361.023 18.9972 362.173 19.3808C363.254 19.8099 364.673 19.2259 365.781 19.941C368.496 20.2151 371.093 21.1327 373.829 20.9838C374.438 20.9838 374.992 20.9838 375.546 20.9838C377.319 20.9361 377.984 20.4236 378.088 18.8028C378.043 17.8518 378.307 16.9087 378.85 16.0796C379.01 15.8091 379.043 15.4963 378.944 15.2051C378.845 14.9139 378.621 14.6662 378.317 14.5124V14.5124ZM11.8645 4.09041C12.4254 3.69713 12.3422 4.16788 12.453 4.38835L11.8645 4.09041ZM12.4946 4.43007L13.1248 4.72801C12.55 5.16301 12.6124 4.66842 12.4946 4.43007V4.43007ZM124.375 5.8006C124.033 5.98094 123.679 6.14409 123.315 6.28923C122.554 6.60505 122.249 6.50971 121.806 5.75293C121.514 5.37352 121.281 4.96283 121.113 4.53136C121.065 4.31684 121.425 3.97719 121.695 3.79247C121.965 3.60774 122.214 3.74479 122.346 3.73288C123.392 3.73288 123.038 4.14999 122.941 4.62074C122.796 5.35368 123.634 5.06765 124.022 5.21662L124.763 5.42519C124.655 5.5658 124.525 5.69226 124.375 5.8006V5.8006ZM137.997 3.22637L138.274 3.36343L137.97 3.45877L137.997 3.22637ZM134.86 3.60774C134.451 3.60774 134.036 3.60774 133.191 3.60774C133.191 3.60774 132.817 3.57795 132.415 3.51837C132.291 3.51837 132.187 3.39323 132.076 3.32768C132.174 3.24873 132.286 3.18429 132.408 3.13699C132.666 3.06653 132.935 3.03037 133.205 3.02974C134.237 3.07145 135.109 2.89863 135.393 1.88563C135.573 1.95713 135.878 1.9929 135.92 2.10016C136.007 2.25783 136.047 2.43169 136.037 2.60613C136.027 2.78058 135.967 2.95013 135.862 3.09958C135.757 3.24904 135.61 3.37372 135.436 3.46241C135.261 3.5511 135.063 3.60104 134.86 3.60774V3.60774ZM142.09 5.67547C140.996 5.74101 139.902 5.78272 139.14 5.81847C137.845 5.81847 136.875 5.81847 135.913 5.81847C135.802 5.81847 135.677 5.55032 135.608 5.38347C135.608 5.34772 135.809 5.18087 135.913 5.18087C137.976 5.20471 140.036 5.24444 142.09 5.30006C142.201 5.30006 142.312 5.43114 142.423 5.49669C142.312 5.54436 142.201 5.66355 142.09 5.67547ZM155.706 4.92465C155.623 4.92465 155.56 4.80547 155.491 4.73992C155.595 4.66842 155.699 4.53137 155.802 4.52541C157.188 4.4837 158.289 3.71499 159.508 3.26212C159.755 3.18406 160.007 3.11841 160.263 3.06549L160.74 3.42897C160.117 4.02485 160.74 4.44794 160.914 4.9604C160.976 5.15704 160.415 5.69333 160.394 5.68141C158.919 4.98423 157.271 5.15108 155.706 4.92465ZM161.142 7.2069C160.602 7.2069 160.055 7.2069 159.196 7.2069C159.12 7.2069 158.718 7.17114 158.33 7.11155C158.206 7.11155 158.102 6.98641 157.998 6.9149C158.102 6.84935 158.206 6.73017 158.317 6.72421C159.258 6.6825 160.193 6.65272 161.128 6.66464C161.246 6.66464 161.364 6.89702 161.481 7.02215C161.391 7.0877 161.253 7.20094 161.142 7.2069ZM163.109 4.91273C162.79 4.8591 162.479 4.78163 162.167 4.71608C162.271 4.63862 162.389 4.4956 162.486 4.50752C162.734 4.54895 162.978 4.61082 163.213 4.69226C163.187 4.76855 163.152 4.84241 163.109 4.91273V4.91273ZM181.697 1.64131C181.934 1.69223 182.165 1.76002 182.389 1.84393C182.216 1.95715 182.05 2.14186 181.898 2.12994C181.745 2.11802 181.537 1.95118 181.357 1.84988C181.475 1.76049 181.607 1.62939 181.697 1.64131V1.64131ZM182.736 5.04978C181.233 5.04978 179.723 5.04978 178.213 5.04978C176.704 5.04978 175.201 5.04978 173.691 5.04978C173.442 4.99896 173.207 4.90798 172.998 4.78164C173.261 4.2509 173.576 3.74054 173.94 3.25617C174.051 3.13104 174.896 3.25616 174.938 3.33959C175.263 4.34663 176.087 4.53137 177.133 4.4837C178.345 4.40027 179.661 4.53136 180.741 4.16191C181.593 3.86993 181.967 4.19767 182.528 4.43007L183.22 4.73396C183.075 4.84122 182.909 5.04382 182.736 5.04978ZM193.394 5.78869C193.121 5.82369 192.845 5.83764 192.57 5.83038C192.433 5.82499 192.295 5.83502 192.161 5.86019C191.912 5.9317 191.669 6.02703 191.427 6.11642C191.711 6.26539 191.981 6.43819 192.279 6.56333C192.577 6.68847 192.971 6.83148 193.359 6.95662C193.113 7.05136 192.861 7.13491 192.604 7.2069C192.469 7.22491 192.331 7.22491 192.196 7.2069H191.365C190.485 7.2069 189.335 7.45119 189.917 6.05682C189.701 5.95193 189.467 5.87559 189.225 5.83038C188.262 5.78271 187.286 5.8304 186.33 5.73506C185.825 5.59843 185.355 5.37999 184.945 5.09149C184.835 5.01573 184.764 4.90711 184.744 4.78759C184.755 4.74364 184.779 4.70271 184.812 4.66842C184.846 4.63413 184.889 4.60753 184.938 4.59095C185.474 4.505 186.019 4.46311 186.565 4.46582C187.181 4.53012 187.803 4.41853 188.338 4.14826C188.872 3.87798 189.289 3.46402 189.523 2.97014C190.111 1.99885 191.205 2.01077 192.203 2.83905C192.369 2.9761 192.577 3.3098 192.5 3.39918C191.489 4.62075 192.064 5.07362 193.574 5.18684C193.775 5.18684 193.962 5.41326 194.163 5.53244C193.916 5.63784 193.659 5.72362 193.394 5.78869V5.78869ZM194.363 3.54219C194.232 3.54219 194.079 3.34556 193.941 3.2383C194.165 3.15865 194.397 3.09487 194.633 3.04761C194.71 3.04761 194.813 3.19657 194.903 3.28C194.744 3.36938 194.564 3.54815 194.363 3.54815V3.54219ZM202.21 4.84123L202.397 4.61479L202.528 4.87102L202.21 4.84123ZM211.905 5.1034L211.275 4.78759C211.905 4.36451 211.843 4.84717 211.947 5.1034H211.905ZM211.947 5.15108L212.57 5.44903C212.009 5.93169 212.106 5.37752 211.982 5.15108H211.947ZM214.025 3.53624C213.685 3.39919 213.699 3.25021 214.059 3.16083C214.101 3.16083 214.205 3.29192 214.274 3.36343C214.205 3.42302 214.08 3.54815 214.025 3.54815V3.53624ZM217.702 5.8006C217.347 5.82989 216.99 5.82989 216.636 5.8006C216.443 5.82011 216.248 5.80797 216.061 5.76485C215.901 5.71717 215.804 5.52053 215.673 5.38944C215.791 5.32389 215.901 5.21067 216.019 5.20471C216.57 5.17198 217.123 5.17198 217.674 5.20471C217.924 5.26721 218.159 5.36816 218.367 5.50265C218.165 5.62448 217.946 5.72454 217.716 5.8006H217.702ZM227.993 5.43115C227.993 5.40136 228.153 5.31793 228.243 5.2643C228.312 5.33581 228.464 5.44307 228.443 5.47287C228.291 5.73506 228.111 5.72314 228.007 5.43115H227.993ZM236.241 6.4382C235.03 6.56333 233.797 6.73614 233.333 5.3239C233.236 5.02 232.799 4.80548 232.571 4.52541C232.462 4.33789 232.387 4.13685 232.349 3.92953C232.596 3.8554 232.848 3.79567 233.104 3.75075C233.459 3.73154 233.816 3.73154 234.171 3.75075C234.538 3.78055 235.431 3.61965 234.794 4.62074C234.746 4.70416 234.967 5.03191 235.126 5.07958C235.5 5.18088 235.978 5.07958 236.304 5.2643C236.572 5.46548 236.749 5.74211 236.802 6.04491C236.878 6.15217 236.47 6.41436 236.255 6.4382H236.241ZM246.754 4.26917C246.636 4.23342 246.546 4.12616 246.436 4.05466C246.643 3.9474 246.851 3.75671 247.066 3.75075C248.451 3.75075 249.801 3.75075 251.166 3.75075V3.68521C252.662 3.75076 254.164 3.81033 255.653 3.91163C255.806 3.91163 256.02 4.23939 256.041 4.43007C256.062 4.62075 255.723 4.87698 255.681 4.85911C254.887 4.51736 254.006 4.35296 253.119 4.38108C252.232 4.40919 251.367 4.62891 250.605 5.01999C250.084 5.13801 249.534 5.11089 249.033 4.94252C248.271 4.73992 247.523 4.50156 246.768 4.26917H246.754ZM256.318 7.189C255.009 7.35585 253.548 6.95662 252.398 7.85044C252.218 7.9875 251.664 7.79086 251.29 7.70744C250.646 7.55847 250.009 7.3916 249.386 7.189C249.22 7.13537 248.984 6.87915 249.026 6.78977C249.14 6.57917 249.308 6.3937 249.517 6.24751C249.765 6.04077 250.082 5.90558 250.423 5.86074C250.764 5.81589 251.114 5.86359 251.422 5.99723C252.315 6.36668 253.043 6.59313 254.033 6.08663C255.023 5.58013 255.695 6.62292 256.581 6.7838C256.63 6.7838 256.644 6.93874 256.678 7.01621C256.575 7.08948 256.458 7.14783 256.332 7.189H256.318ZM272.939 7.189C272.294 7.22275 271.646 7.22275 271 7.189C271.166 7.189 270.626 7.15327 270.1 7.0758C269.982 7.0758 269.885 6.93874 269.781 6.86127C269.899 6.79572 270.01 6.68847 270.128 6.68251C271.083 6.62888 272.032 6.59312 272.988 6.57524C273.092 6.57524 273.202 6.7123 273.313 6.7838C273.23 6.95065 273.126 7.18305 272.981 7.20093L272.939 7.189ZM273.23 5.63971C273.085 5.63971 272.974 5.30006 272.849 5.11533L272.198 4.80546C272.766 4.37047 272.731 4.85314 272.849 5.11533C273.113 5.10013 273.378 5.11213 273.639 5.15108C273.865 5.23627 274.076 5.34644 274.269 5.47881C273.948 5.57835 273.612 5.63658 273.272 5.65163L273.23 5.63971ZM279.56 5.22259C279.754 5.22259 279.941 5.40731 280.128 5.50265C279.927 5.598 279.719 5.75889 279.518 5.75293C279.318 5.74698 279.131 5.5682 278.937 5.4669C279.186 5.38944 279.401 5.2345 279.601 5.2345L279.56 5.22259ZM280.432 7.92791C279.608 7.92791 278.777 7.92791 277.953 7.92791C277.95 7.9656 277.95 8.00344 277.953 8.04113C276.998 7.96963 276.049 7.91003 275.1 7.8266C274.982 7.8266 274.878 7.68955 274.768 7.624C274.871 7.54654 274.968 7.40949 275.072 7.40949C276.852 7.37374 278.632 7.34394 280.412 7.34394C280.537 7.34394 280.654 7.59422 280.779 7.72531C280.703 7.80874 280.592 7.93386 280.509 7.93982L280.432 7.92791ZM302.476 7.14134C302.116 6.80168 302.525 6.47991 302.822 6.34286C302.972 6.27971 303.137 6.24687 303.304 6.24687C303.471 6.24687 303.635 6.27971 303.785 6.34286C304.028 6.48587 304.298 6.96853 304.201 7.09962C303.835 7.56962 303.666 8.133 303.723 8.69661C302.739 8.55956 303.023 7.624 302.518 7.15325L302.476 7.14134ZM307.289 9.31037C306.396 9.55468 305.503 9.81687 304.595 9.99563C304.145 10.085 303.827 9.83475 303.792 9.39975C303.792 9.16735 303.792 8.94092 303.744 8.70852C304.838 8.70852 305.925 8.73832 307.019 8.78599C307.22 8.78599 307.414 8.98263 307.608 9.08393C307.531 9.17585 307.438 9.25636 307.331 9.32228L307.289 9.31037ZM332.006 11.5211C331.732 11.545 331.456 11.545 331.182 11.5211V11.5211C330.911 11.554 330.636 11.554 330.365 11.5211C330.213 11.4853 330.116 11.2768 329.991 11.1397C330.109 11.0742 330.219 10.9491 330.33 10.9491C330.879 10.9163 331.43 10.9163 331.979 10.9491C332.224 11.0128 332.457 11.1072 332.671 11.2291C332.477 11.3504 332.268 11.4524 332.048 11.533L332.006 11.5211ZM335.199 9.35803C334.652 9.39379 334.098 9.35803 333.544 9.35803C333.129 9.38189 332.712 9.38189 332.297 9.35803C332.04 9.3012 331.793 9.21503 331.563 9.10181C331.764 8.98859 331.951 8.78002 332.152 8.77406C333.118 8.73235 334.087 8.73235 335.053 8.77406C335.374 8.84445 335.677 8.9657 335.947 9.13159C335.717 9.23693 335.473 9.317 335.22 9.36994L335.199 9.35803ZM338.662 12.2481C338.247 12.2761 337.83 12.2761 337.415 12.2481C337.574 12.2481 337.284 12.2838 337.034 12.2123C336.889 12.1647 336.799 11.9561 336.688 11.825C336.799 11.7595 336.91 11.6462 337.02 11.6462C337.564 11.6134 338.11 11.6134 338.655 11.6462C338.903 11.704 339.137 11.7988 339.347 11.9263C339.154 12.0571 338.945 12.169 338.724 12.26L338.662 12.2481ZM341.667 12.117C341.584 12.117 341.515 11.9978 341.446 11.9382C341.529 11.8846 341.626 11.7892 341.709 11.7952C341.792 11.8012 341.854 11.9144 341.923 11.9799C341.903 12.0455 341.806 12.1349 341.729 12.1289L341.667 12.117Z" fill="#FFD21F"/>
</svg>
